<svg width="400" height="129" viewBox="0 0 400 129" fill="none" xmlns="http://www.w3.org/2000/svg">
<g opacity="0.35">
<path d="M33.4351 46.6501C33.4351 40.9933 33.4351 38.1649 35.1924 36.4075C36.9498 34.6501 39.7782 34.6501 45.4351 34.6501H53.4351C59.0919 34.6501 61.9204 34.6501 63.6777 36.4075C65.4351 38.1649 65.4351 40.9933 65.4351 46.6501V54.6501C65.4351 60.307 65.4351 63.1354 63.6777 64.8928C61.9204 66.6501 59.0919 66.6501 53.4351 66.6501H45.4351C39.7782 66.6501 36.9498 66.6501 35.1924 64.8928C33.4351 63.1354 33.4351 60.307 33.4351 54.6501V46.6501Z" fill="#72B9BC" fill-opacity="0.6" style="fill:#72B9BC;fill:color(display-p3 0.4471 0.7255 0.7373);fill-opacity:0.6;"/>
<path d="M45.4351 34.9001H53.4351C56.2706 34.9001 58.3725 34.901 59.9859 35.1179C61.5918 35.3339 62.6761 35.7603 63.5005 36.5847C64.3249 37.4091 64.7514 38.4935 64.9673 40.0994C65.1842 41.7127 65.1851 43.8147 65.1851 46.6501V54.6501C65.1851 57.4856 65.1842 59.5876 64.9673 61.2009C64.7514 62.8068 64.3249 63.8912 63.5005 64.7156C62.6761 65.54 61.5918 65.9664 59.9859 66.1824C58.3725 66.3993 56.2706 66.4001 53.4351 66.4001H45.4351C42.5996 66.4001 40.4977 66.3993 38.8843 66.1824C37.2784 65.9664 36.1941 65.54 35.3697 64.7156C34.5453 63.8912 34.1188 62.8068 33.9029 61.2009C33.686 59.5876 33.6851 57.4856 33.6851 54.6501V46.6501C33.6851 43.8147 33.686 41.7127 33.9029 40.0994C34.1188 38.4935 34.5453 37.4091 35.3697 36.5847C36.1941 35.7603 37.2784 35.3339 38.8843 35.1179C40.4977 34.901 42.5996 34.9001 45.4351 34.9001Z" stroke="#72B9BC" stroke-opacity="0.6" style="stroke:#72B9BC;stroke:color(display-p3 0.4471 0.7255 0.7373);stroke-opacity:0.6;" stroke-width="0.5"/>
</g>
<g clip-path="url(#clip0_17_111)">
<rect width="400" height="129" rx="14" fill="#F8FEFB" fill-opacity="0.15" style="fill:#F8FEFB;fill:color(display-p3 0.9725 0.9961 0.9843);fill-opacity:0.15;"/>
<g opacity="0.2">
<path d="M-87 -57.6143C-87 -72.881 -87 -80.5144 -82.2572 -85.2572C-77.5144 -90 -69.881 -90 -54.6143 -90H14.6143C29.881 -90 37.5144 -90 42.2572 -85.2572C47 -80.5144 47 -72.881 47 -57.6143V11.6143C47 26.881 47 34.5144 42.2572 39.2572C37.5144 44 29.881 44 14.6143 44H-54.6143C-69.881 44 -77.5144 44 -82.2572 39.2572C-87 34.5144 -87 26.881 -87 11.6143V-57.6143Z" fill="#72B9BC" fill-opacity="0.1" style="fill:#72B9BC;fill:color(display-p3 0.4471 0.7255 0.7373);fill-opacity:0.1;"/>
<path d="M-54.6143 -89.3252H14.6143C22.2665 -89.3252 27.9379 -89.3236 32.292 -88.7383C36.6267 -88.1555 39.5551 -87.0054 41.7803 -84.7803C44.0054 -82.5551 45.1555 -79.6267 45.7383 -75.292C46.3236 -70.9379 46.3252 -65.2665 46.3252 -57.6143V11.6143C46.3252 19.2665 46.3236 24.9379 45.7383 29.292C45.1555 33.6267 44.0054 36.5551 41.7803 38.7803C39.5551 41.0054 36.6267 42.1555 32.292 42.7383C27.9379 43.3236 22.2665 43.3252 14.6143 43.3252H-54.6143C-62.2665 43.3252 -67.9379 43.3236 -72.292 42.7383C-76.6267 42.1555 -79.5551 41.0054 -81.7803 38.7803C-84.0054 36.5551 -85.1555 33.6267 -85.7383 29.292C-86.3236 24.9379 -86.3252 19.2665 -86.3252 11.6143V-57.6143C-86.3252 -65.2665 -86.3236 -70.9379 -85.7383 -75.292C-85.1555 -79.6267 -84.0054 -82.5551 -81.7803 -84.7803C-79.5551 -87.0054 -76.6267 -88.1555 -72.292 -88.7383C-67.9379 -89.3236 -62.2665 -89.3252 -54.6143 -89.3252Z" stroke="#72B9BC" stroke-opacity="0.5" style="stroke:#72B9BC;stroke:color(display-p3 0.4471 0.7255 0.7373);stroke-opacity:0.5;" stroke-width="1.34941"/>
</g>
<g opacity="0.45">
<rect x="38" y="100" width="87" height="87" rx="12" fill="#72B9BC" fill-opacity="0.1" style="fill:#72B9BC;fill:color(display-p3 0.4471 0.7255 0.7373);fill-opacity:0.1;"/>
<rect x="38.6747" y="100.675" width="85.6506" height="85.6506" rx="11.3253" stroke="#72B9BC" stroke-opacity="0.3" style="stroke:#72B9BC;stroke:color(display-p3 0.4471 0.7255 0.7373);stroke-opacity:0.3;" stroke-width="1.34941"/>
</g>
<g opacity="0.35">
<rect x="263" y="-31" width="71" height="71" rx="12" fill="#72B9BC" fill-opacity="0.05" style="fill:#72B9BC;fill:color(display-p3 0.4471 0.7255 0.7373);fill-opacity:0.05;"/>
<rect x="263.675" y="-30.3253" width="69.6506" height="69.6506" rx="11.3253" stroke="#72B9BC" stroke-opacity="0.4" style="stroke:#72B9BC;stroke:color(display-p3 0.4471 0.7255 0.7373);stroke-opacity:0.4;" stroke-width="1.34941"/>
</g>
<g opacity="0.2">
<path d="M344.386 69.6748H371.374C379.026 69.6748 384.698 69.6763 389.052 70.2617C393.387 70.8445 396.315 71.9946 398.54 74.2197C400.765 76.4449 401.915 79.3733 402.498 83.708C403.083 88.0621 403.085 93.7335 403.085 101.386V128.374C403.085 136.026 403.083 141.698 402.498 146.052C401.915 150.386 400.765 153.315 398.54 155.54C396.315 157.765 393.387 158.915 389.052 159.498C384.698 160.083 379.026 160.085 371.374 160.085H344.386C336.734 160.085 331.062 160.083 326.708 159.498C322.373 158.915 319.445 157.765 317.22 155.54C314.995 153.315 313.845 150.386 313.262 146.052C312.676 141.698 312.675 136.026 312.675 128.374V101.386C312.675 93.7335 312.676 88.0621 313.262 83.708C313.845 79.3733 314.995 76.4449 317.22 74.2197C319.445 71.9946 322.373 70.8445 326.708 70.2617C331.062 69.6764 336.733 69.6748 344.386 69.6748Z" fill="#72B9BC" fill-opacity="0.1" style="fill:#72B9BC;fill:color(display-p3 0.4471 0.7255 0.7373);fill-opacity:0.1;"/>
<path d="M344.386 69.6748H371.374C379.026 69.6748 384.698 69.6763 389.052 70.2617C393.387 70.8445 396.315 71.9946 398.54 74.2197C400.765 76.4449 401.915 79.3733 402.498 83.708C403.083 88.0621 403.085 93.7335 403.085 101.386V128.374C403.085 136.026 403.083 141.698 402.498 146.052C401.915 150.386 400.765 153.315 398.54 155.54C396.315 157.765 393.387 158.915 389.052 159.498C384.698 160.083 379.026 160.085 371.374 160.085H344.386C336.734 160.085 331.062 160.083 326.708 159.498C322.373 158.915 319.445 157.765 317.22 155.54C314.995 153.315 313.845 150.386 313.262 146.052C312.676 141.698 312.675 136.026 312.675 128.374V101.386C312.675 93.7335 312.676 88.0621 313.262 83.708C313.845 79.3733 314.995 76.4449 317.22 74.2197C319.445 71.9946 322.373 70.8445 326.708 70.2617C331.062 69.6764 336.733 69.6748 344.386 69.6748Z" stroke="#72B9BC" style="stroke:#72B9BC;stroke:color(display-p3 0.4471 0.7255 0.7373);stroke-opacity:1;" stroke-width="1.34941"/>
</g>
</g>
<defs>
<clipPath id="clip0_17_111">
<rect width="400" height="129" rx="14" fill="white" style="fill:white;fill-opacity:1;"/>
</clipPath>
</defs>
</svg>
