<svg width="46" height="46" viewBox="0 0 46 46" fill="none" xmlns="http://www.w3.org/2000/svg">
<path d="M0 12C0 6.34315 0 3.51472 1.75736 1.75736C3.51472 0 6.34315 0 12 0H34C39.6569 0 42.4853 0 44.2426 1.75736C46 3.51472 46 6.34315 46 12V34C46 39.6569 46 42.4853 44.2426 44.2426C42.4853 46 39.6569 46 34 46H12C6.34315 46 3.51472 46 1.75736 44.2426C0 42.4853 0 39.6569 0 34V12Z" fill="white" fill-opacity="0.32" style="fill:white;fill-opacity:0.32;"/>
<path d="M12 0.5H34C36.8423 0.5 38.9238 0.500754 40.5166 0.714844C42.095 0.927059 43.1184 1.34103 43.8887 2.11133C44.659 2.88162 45.0729 3.90496 45.2852 5.4834C45.4992 7.07616 45.5 9.1577 45.5 12V34C45.5 36.8423 45.4992 38.9238 45.2852 40.5166C45.0729 42.095 44.659 43.1184 43.8887 43.8887C43.1184 44.659 42.095 45.0729 40.5166 45.2852C38.9238 45.4992 36.8423 45.5 34 45.5H12C9.1577 45.5 7.07616 45.4992 5.4834 45.2852C3.90496 45.0729 2.88162 44.659 2.11133 43.8887C1.34103 43.1184 0.927059 42.095 0.714844 40.5166C0.500754 38.9238 0.5 36.8423 0.5 34V12C0.5 9.1577 0.500754 7.07616 0.714844 5.4834C0.927059 3.90496 1.34103 2.88162 2.11133 2.11133C2.88162 1.34103 3.90496 0.927059 5.4834 0.714844C7.07616 0.500754 9.1577 0.5 12 0.5Z" stroke="#4CA0A3" stroke-opacity="0.4" style="stroke:#4CA0A3;stroke:color(display-p3 0.2992 0.6256 0.6394);stroke-opacity:0.4;"/>
<g filter="url(#filter1_d_17_105)">
<path fill-rule="evenodd" clip-rule="evenodd" d="M31.1264 17.5548C31.3656 17.7941 31.4999 18.1185 31.4999 18.4568C31.4999 18.795 31.3656 19.1194 31.1264 19.3587L21.5647 28.9204C21.4383 29.0468 21.2883 29.1471 21.1232 29.2155C20.9581 29.2839 20.7811 29.3191 20.6024 29.3191C20.4236 29.3191 20.2467 29.2839 20.0816 29.2155C19.9164 29.1471 19.7664 29.0468 19.6401 28.9204L14.8894 24.1706C14.7675 24.0529 14.6704 23.9121 14.6035 23.7565C14.5366 23.6009 14.5014 23.4335 14.5 23.2641C14.4985 23.0947 14.5308 22.9267 14.5949 22.7699C14.6591 22.6132 14.7538 22.4707 14.8736 22.3509C14.9933 22.2312 15.1358 22.1364 15.2926 22.0723C15.4493 22.0082 15.6173 21.9759 15.7867 21.9774C15.9561 21.9788 16.1235 22.014 16.2791 22.0809C16.4348 22.1477 16.5755 22.2449 16.6932 22.3668L20.6019 26.2755L29.3217 17.5548C29.4402 17.4363 29.5809 17.3423 29.7357 17.2781C29.8905 17.2139 30.0565 17.1809 30.2241 17.1809C30.3917 17.1809 30.5576 17.2139 30.7125 17.2781C30.8673 17.3423 31.0079 17.4363 31.1264 17.5548Z" fill="#5D8D8F" style="fill:#5D8D8F;fill:color(display-p3 0.3660 0.5545 0.5625);fill-opacity:1;"/>
</g>
<defs>
<filter id="filter1_d_17_105" x="13.4999" y="17.1809" width="19" height="14.1382" filterUnits="userSpaceOnUse" color-interpolation-filters="sRGB">
<feFlood flood-opacity="0" result="BackgroundImageFix"/>
<feColorMatrix in="SourceAlpha" type="matrix" values="0 0 0 0 0 0 0 0 0 0 0 0 0 0 0 0 0 0 127 0" result="hardAlpha"/>
<feOffset dy="1"/>
<feGaussianBlur stdDeviation="0.5"/>
<feComposite in2="hardAlpha" operator="out"/>
<feColorMatrix type="matrix" values="0 0 0 0 0.196417 0 0 0 0 0.375448 0 0 0 0 0.383013 0 0 0 0.6 0"/>
<feBlend mode="normal" in2="BackgroundImageFix" result="effect1_dropShadow_17_105"/>
<feBlend mode="normal" in="SourceGraphic" in2="effect1_dropShadow_17_105" result="shape"/>
</filter>
</defs>
</svg>
