<svg width="44" height="44" viewBox="0 0 44 44" fill="none" xmlns="http://www.w3.org/2000/svg">
<rect width="44" height="44" rx="7" fill="#72B9BC" fill-opacity="0.1" style="fill:#72B9BC;fill:color(display-p3 0.4471 0.7255 0.7373);fill-opacity:0.1;"/>
<path fill-rule="evenodd" clip-rule="evenodd" d="M29.648 16.89C29.8731 17.1152 29.9996 17.4205 29.9996 17.7389C29.9996 18.0573 29.8731 18.3626 29.648 18.5877L20.6487 27.587C20.5298 27.706 20.3886 27.8004 20.2332 27.8647C20.0778 27.9291 19.9113 27.9623 19.743 27.9623C19.5748 27.9623 19.4083 27.9291 19.2529 27.8647C19.0975 27.8004 18.9563 27.706 18.8374 27.587L14.3661 23.1166C14.2514 23.0059 14.16 22.8734 14.0971 22.7269C14.0341 22.5804 14.001 22.4228 13.9996 22.2634C13.9982 22.104 14.0286 21.9459 14.089 21.7983C14.1494 21.6508 14.2385 21.5167 14.3512 21.404C14.464 21.2913 14.598 21.2021 14.7456 21.1417C14.8931 21.0814 15.0512 21.051 15.2107 21.0524C15.3701 21.0538 15.5276 21.0869 15.6741 21.1498C15.8206 21.2127 15.9531 21.3042 16.0638 21.4189L19.7426 25.0977L27.9495 16.89C28.061 16.7784 28.1934 16.6899 28.3391 16.6296C28.4848 16.5692 28.641 16.5381 28.7988 16.5381C28.9565 16.5381 29.1127 16.5692 29.2584 16.6296C29.4041 16.6899 29.5365 16.7784 29.648 16.89Z" fill="#5D8D8F" style="fill:#5D8D8F;fill:color(display-p3 0.3660 0.5545 0.5625);fill-opacity:1;"/>
</svg>
