<svg width="44" height="44" viewBox="0 0 44 44" fill="none" xmlns="http://www.w3.org/2000/svg">
<rect width="44" height="44" rx="7" fill="#F1F8F9" style="fill:#F1F8F9;fill:color(display-p3 0.9451 0.9725 0.9765);fill-opacity:1;"/>
<path d="M31.9996 22.0001C31.9996 22.2211 31.9118 22.4331 31.7556 22.5893C31.5993 22.7456 31.3873 22.8334 31.1663 22.8334H21.9999C21.7789 22.8334 21.5669 22.7456 21.4106 22.5893C21.2543 22.4331 21.1666 22.2211 21.1666 22.0001C21.1666 21.7791 21.2543 21.5671 21.4106 21.4109C21.5669 21.2546 21.7789 21.1668 21.9999 21.1668H31.1663C31.3873 21.1668 31.5993 21.2546 31.7556 21.4109C31.9118 21.5671 31.9996 21.7791 31.9996 22.0001ZM21.9999 16.1669H31.1663C31.3873 16.1669 31.5993 16.0791 31.7556 15.9228C31.9118 15.7665 31.9996 15.5546 31.9996 15.3336C31.9996 15.1126 31.9118 14.9006 31.7556 14.7443C31.5993 14.5881 31.3873 14.5003 31.1663 14.5003H21.9999C21.7789 14.5003 21.5669 14.5881 21.4106 14.7443C21.2543 14.9006 21.1666 15.1126 21.1666 15.3336C21.1666 15.5546 21.2543 15.7665 21.4106 15.9228C21.5669 16.0791 21.7789 16.1669 21.9999 16.1669ZM31.1663 27.8333H21.9999C21.7789 27.8333 21.5669 27.9211 21.4106 28.0774C21.2543 28.2336 21.1666 28.4456 21.1666 28.6666C21.1666 28.8876 21.2543 29.0996 21.4106 29.2558C21.5669 29.4121 21.7789 29.4999 21.9999 29.4999H31.1663C31.3873 29.4999 31.5993 29.4121 31.7556 29.2558C31.9118 29.0996 31.9996 28.8876 31.9996 28.6666C31.9996 28.4456 31.9118 28.2336 31.7556 28.0774C31.5993 27.9211 31.3873 27.8333 31.1663 27.8333ZM17.2437 13.0774L14.5 15.8221L13.423 14.744C13.2666 14.5876 13.0545 14.4998 12.8334 14.4998C12.6123 14.4998 12.4002 14.5876 12.2438 14.744C12.0875 14.9004 11.9996 15.1124 11.9996 15.3336C11.9996 15.5547 12.0875 15.7668 12.2438 15.9232L13.9105 17.5898C13.9879 17.6673 14.0798 17.7287 14.1809 17.7707C14.2821 17.8126 14.3905 17.8342 14.5 17.8342C14.6095 17.8342 14.718 17.8126 14.8191 17.7707C14.9203 17.7287 15.0122 17.6673 15.0896 17.5898L18.4229 14.2565C18.5792 14.1002 18.6671 13.8881 18.6671 13.667C18.6671 13.4458 18.5792 13.2337 18.4229 13.0774C18.2665 12.921 18.0544 12.8332 17.8333 12.8332C17.6122 12.8332 17.4001 12.921 17.2437 13.0774ZM17.2437 19.7439L14.5 22.4886L13.423 21.4105C13.2666 21.2542 13.0545 21.1663 12.8334 21.1663C12.6123 21.1663 12.4002 21.2542 12.2438 21.4105C12.0875 21.5669 11.9996 21.779 11.9996 22.0001C11.9996 22.1096 12.0212 22.218 12.0631 22.3192C12.105 22.4203 12.1664 22.5122 12.2438 22.5897L13.9105 24.2563C13.9879 24.3338 14.0798 24.3952 14.1809 24.4372C14.2821 24.4791 14.3905 24.5007 14.5 24.5007C14.6095 24.5007 14.718 24.4791 14.8191 24.4372C14.9203 24.3952 15.0122 24.3338 15.0896 24.2563L18.4229 20.923C18.5792 20.7667 18.6671 20.5546 18.6671 20.3335C18.6671 20.1123 18.5792 19.9003 18.4229 19.7439C18.2665 19.5875 18.0544 19.4997 17.8333 19.4997C17.6122 19.4997 17.4001 19.5875 17.2437 19.7439ZM17.2437 26.4104L14.5 29.1551L13.423 28.077C13.3456 27.9996 13.2536 27.9382 13.1525 27.8963C13.0513 27.8544 12.9429 27.8328 12.8334 27.8328C12.7239 27.8328 12.6155 27.8544 12.5143 27.8963C12.4132 27.9382 12.3213 27.9996 12.2438 28.077C12.1664 28.1545 12.105 28.2464 12.0631 28.3475C12.0212 28.4487 11.9996 28.5571 11.9996 28.6666C11.9996 28.7761 12.0212 28.8845 12.0631 28.9857C12.105 29.0868 12.1664 29.1788 12.2438 29.2562L13.9105 30.9228C13.9879 31.0003 14.0798 31.0617 14.1809 31.1037C14.2821 31.1456 14.3905 31.1672 14.5 31.1672C14.6095 31.1672 14.718 31.1456 14.8191 31.1037C14.9203 31.0617 15.0122 31.0003 15.0896 30.9228L18.4229 27.5895C18.5792 27.4332 18.6671 27.2211 18.6671 27C18.6671 26.7788 18.5792 26.5668 18.4229 26.4104C18.2665 26.254 18.0544 26.1662 17.8333 26.1662C17.6122 26.1662 17.4001 26.254 17.2437 26.4104Z" fill="#2E8185" style="fill:#2E8185;fill:color(display-p3 0.1804 0.5059 0.5216);fill-opacity:1;"/>
</svg>
