<svg width="44" height="44" viewBox="0 0 44 44" fill="none" xmlns="http://www.w3.org/2000/svg">
<rect width="44" height="44" rx="7" fill="#72B9BC" fill-opacity="0.2" style="fill:#72B9BC;fill:color(display-p3 0.4471 0.7255 0.7373);fill-opacity:0.2;"/>
<path d="M31.9995 22.0001C31.9995 22.2211 31.9117 22.4331 31.7554 22.5893C31.5992 22.7456 31.3872 22.8334 31.1662 22.8334H21.9997C21.7787 22.8334 21.5668 22.7456 21.4105 22.5893C21.2542 22.4331 21.1664 22.2211 21.1664 22.0001C21.1664 21.7791 21.2542 21.5671 21.4105 21.4109C21.5668 21.2546 21.7787 21.1668 21.9997 21.1668H31.1662C31.3872 21.1668 31.5992 21.2546 31.7554 21.4109C31.9117 21.5671 31.9995 21.7791 31.9995 22.0001ZM21.9997 16.1669H31.1662C31.3872 16.1669 31.5992 16.0791 31.7554 15.9228C31.9117 15.7665 31.9995 15.5546 31.9995 15.3336C31.9995 15.1126 31.9117 14.9006 31.7554 14.7443C31.5992 14.5881 31.3872 14.5003 31.1662 14.5003H21.9997C21.7787 14.5003 21.5668 14.5881 21.4105 14.7443C21.2542 14.9006 21.1664 15.1126 21.1664 15.3336C21.1664 15.5546 21.2542 15.7665 21.4105 15.9228C21.5668 16.0791 21.7787 16.1669 21.9997 16.1669ZM31.1662 27.8333H21.9997C21.7787 27.8333 21.5668 27.9211 21.4105 28.0774C21.2542 28.2336 21.1664 28.4456 21.1664 28.6666C21.1664 28.8876 21.2542 29.0996 21.4105 29.2558C21.5668 29.4121 21.7787 29.4999 21.9997 29.4999H31.1662C31.3872 29.4999 31.5992 29.4121 31.7554 29.2558C31.9117 29.0996 31.9995 28.8876 31.9995 28.6666C31.9995 28.4456 31.9117 28.2336 31.7554 28.0774C31.5992 27.9211 31.3872 27.8333 31.1662 27.8333ZM17.2436 13.0774L14.4999 15.8221L13.4229 14.744C13.2665 14.5876 13.0544 14.4998 12.8333 14.4998C12.6122 14.4998 12.4001 14.5876 12.2437 14.744C12.0874 14.9004 11.9995 15.1124 11.9995 15.3336C11.9995 15.5547 12.0874 15.7668 12.2437 15.9232L13.9103 17.5898C13.9877 17.6673 14.0796 17.7287 14.1808 17.7707C14.282 17.8126 14.3904 17.8342 14.4999 17.8342C14.6094 17.8342 14.7179 17.8126 14.819 17.7707C14.9202 17.7287 15.0121 17.6673 15.0895 17.5898L18.4227 14.2565C18.5791 14.1002 18.667 13.8881 18.667 13.667C18.667 13.4458 18.5791 13.2337 18.4227 13.0774C18.2664 12.921 18.0543 12.8332 17.8332 12.8332C17.612 12.8332 17.4 12.921 17.2436 13.0774ZM17.2436 19.7439L14.4999 22.4886L13.4229 21.4105C13.2665 21.2542 13.0544 21.1663 12.8333 21.1663C12.6122 21.1663 12.4001 21.2542 12.2437 21.4105C12.0874 21.5669 11.9995 21.779 11.9995 22.0001C11.9995 22.1096 12.0211 22.218 12.063 22.3192C12.1049 22.4203 12.1663 22.5122 12.2437 22.5897L13.9103 24.2563C13.9877 24.3338 14.0796 24.3952 14.1808 24.4372C14.282 24.4791 14.3904 24.5007 14.4999 24.5007C14.6094 24.5007 14.7179 24.4791 14.819 24.4372C14.9202 24.3952 15.0121 24.3338 15.0895 24.2563L18.4227 20.923C18.5791 20.7667 18.667 20.5546 18.667 20.3335C18.667 20.1123 18.5791 19.9003 18.4227 19.7439C18.2664 19.5875 18.0543 19.4997 17.8332 19.4997C17.612 19.4997 17.4 19.5875 17.2436 19.7439ZM17.2436 26.4104L14.4999 29.1551L13.4229 28.077C13.3454 27.9996 13.2535 27.9382 13.1524 27.8963C13.0512 27.8544 12.9428 27.8328 12.8333 27.8328C12.7238 27.8328 12.6154 27.8544 12.5142 27.8963C12.4131 27.9382 12.3211 27.9996 12.2437 28.077C12.1663 28.1545 12.1049 28.2464 12.063 28.3475C12.0211 28.4487 11.9995 28.5571 11.9995 28.6666C11.9995 28.7761 12.0211 28.8845 12.063 28.9857C12.1049 29.0868 12.1663 29.1788 12.2437 29.2562L13.9103 30.9228C13.9877 31.0003 14.0796 31.0617 14.1808 31.1037C14.282 31.1456 14.3904 31.1672 14.4999 31.1672C14.6094 31.1672 14.7179 31.1456 14.819 31.1037C14.9202 31.0617 15.0121 31.0003 15.0895 30.9228L18.4227 27.5895C18.5791 27.4332 18.667 27.2211 18.667 27C18.667 26.7788 18.5791 26.5668 18.4227 26.4104C18.2664 26.254 18.0543 26.1662 17.8332 26.1662C17.612 26.1662 17.4 26.254 17.2436 26.4104Z" fill="#2E8185" style="fill:#2E8185;fill:color(display-p3 0.1804 0.5059 0.5216);fill-opacity:1;"/>
</svg>
